/* XPM */
static char *other_0[] = {
/* columns rows colors chars-per-pixel */
"100 100 3 1 ",
"  c #33ff00",
"o c #00b3ff",
". c #2ed104",
/* pixels */
"                                                                                                    ",
"                                                                                                    ",
"                                                                                                    ",
"                                                                                                    ",
"                                                                                                    ",
"                                                                                                    ",
"                                                                                                    ",
"                                                                                                    ",
"                                                                                                    ",
"                                                                                                    ",
"                                                                                                    ",
"                                                                                                    ",
"                                                                                                    ",
"oooooo........................................................................................oooooo",
"oooooo........................................................................................oooooo",
"oooooo........................................................................................oooooo",
"oooooo........................................................................................oooooo",
"oooooo........................................................................................oooooo",
"oooooo                                                                                        oooooo",
"oooooo                                                                                        oooooo",
"oooooo                                                                                        oooooo",
"oooooo                                                                                        oooooo",
"oooooo                                                                                        oooooo",
"oooooo                                                                                        oooooo",
"oooooo                                                                                        oooooo",
"oooooo                                                                                        oooooo",
"oooooo                                                                                        oooooo",
"oooooo                                                                                        oooooo",
"oooooo                                                                                        oooooo",
"oooooo                                                                                        oooooo",
"oooooo                                                                                        oooooo",
"oooooo                                                                                        oooooo",
"oooooo                                                                                        oooooo",
"oooooo                                                                                        oooooo",
"oooooo                                                                                        oooooo",
"oooooo                                                                                        oooooo",
"oooooo                                                                                        oooooo",
"oooooo                                                                                        oooooo",
"oooooo                                                                                        oooooo",
"oooooo                                                                                        oooooo",
"oooooo                                                                                        oooooo",
"oooooo                                                                                        oooooo",
"oooooo                                                                                        oooooo",
"oooooo                                                                                        oooooo",
"oooooo                                                                                        oooooo",
"oooooo                                                                                        oooooo",
"oooooo                                                                                        oooooo",
"oooooo                                                                                        oooooo",
"oooooo                                                                                        oooooo",
"oooooo                                                                                        oooooo",
"oooooo                                                                                        oooooo",
"oooooo                                                                                        oooooo",
"oooooo                                                                                        oooooo",
"oooooo                                                                                        oooooo",
"oooooo                                                                                        oooooo",
"oooooo                                                                                        oooooo",
"oooooo                                                                                        oooooo",
"oooooo                                                                                        oooooo",
"oooooo                                                                                        oooooo",
"oooooo                                                                                        oooooo",
"oooooo                                                                                        oooooo",
"oooooo                                                                                        oooooo",
"oooooo                                                                                        oooooo",
"oooooo                                                                                        oooooo",
"oooooo                                                                                        oooooo",
"oooooo                                                                                        oooooo",
"oooooo                                                                                        oooooo",
"oooooo                                                                                        oooooo",
"oooooo                                                                                        oooooo",
"oooooo                                                                                        oooooo",
"oooooo                                                                                        oooooo",
"oooooo                                                                                        oooooo",
"oooooo                                                                                        oooooo",
"oooooo                                                                                        oooooo",
"oooooo                                                                                        oooooo",
"oooooo                                                                                        oooooo",
"oooooo                                                                                        oooooo",
"oooooo                                                                                        oooooo",
"oooooo                                                                                        oooooo",
"oooooo                                                                                        oooooo",
"oooooo                                                                                        oooooo",
"oooooo                                                                                        oooooo",
"oooooo                                                                                        oooooo",
"oooooo                                                                                        oooooo",
"oooooo                                                                                        oooooo",
"oooooo                                                                                        oooooo",
"oooooo                                                                                        oooooo",
"oooooo                                                                                        oooooo",
"oooooo                                                                                        oooooo",
"oooooo                                                                                        oooooo",
"oooooo                                                                                        oooooo",
"oooooo                                                                                        oooooo",
"oooooo                                                                                        oooooo",
"oooooo                                                                                        oooooo",
"oooooo                                                                                        oooooo",
"oooooo                                                                                        oooooo",
"oooooo                                                                                        oooooo",
"oooooo                                                                                        oooooo",
"oooooo                                                                                        oooooo",
"oooooo                                                                                        oooooo",
};