/* XPM */
static char *other_0[] = {
/* columns rows colors chars-per-pixel */
"60 112 3 1 ",
"  c None",
". c #000000",
"o c #FFFFFF",
/* pixels */
"                                                            ",
"                                                            ",
"                                                            ",
"                                                            ",
"                                                            ",
"                                                            ",
"         oooooooooooooooooooooooooooooo                     ",
"         oooooooooooooooooooooooooooooo                     ",
"         oooooooooooooooooooooooooooooo                     ",
"         oooooooooooooooooooooooooooooo                     ",
"         oooooooooooooooooooooooooooooo                     ",
"         oooooooooooooooooooooooooooooo                     ",
"         oooooo..................oooooo                     ",
"         oooooo..................oooooo                     ",
"         oooooo..................oooooo                     ",
"         oooooo..................oooooo                     ",
"         oooooo..................oooooo                     ",
"         oooooo..................oooooo                     ",
"         oooooooooooooooooo......oooooo                     ",
"         oooooooooooooooooo......oooooo                     ",
"         oooooooooooooooooo......oooooo                     ",
"         oooooooooooooooooo......oooooo                     ",
"         oooooooooooooooooo......oooooo                     ",
"         oooooooooooooooooo......oooooo                     ",
"                     oooooo......oooooo                     ",
"                     oooooo......oooooo                     ",
"                     oooooo......oooooo                     ",
"                     oooooo......oooooo                     ",
"                     oooooo......oooooo                     ",
"                     oooooo......oooooo                     ",
"                     oooooo......oooooo                     ",
"                     oooooo......oooooo                     ",
"                     oooooo......oooooo                     ",
"                     oooooo......oooooo                     ",
"                     oooooo......oooooo                     ",
"                     oooooo......oooooo                     ",
"                     oooooo......oooooo                     ",
"                     oooooo......oooooo                     ",
"                     oooooo......oooooo                     ",
"                     oooooo......oooooo                     ",
"                     oooooo......oooooo                     ",
"                     oooooo......oooooo                     ",
"                     oooooo......oooooo                     ",
"                     oooooo......oooooo                     ",
"                     oooooo......oooooo                     ",
"                     oooooo......oooooo                     ",
"                     oooooo......oooooo                     ",
"                     oooooo......oooooo                     ",
"                     oooooo......oooooo                     ",
"                     oooooo......oooooo                     ",
"                     oooooo......oooooo                     ",
"                     oooooo......oooooo                     ",
"                     oooooo......oooooo                     ",
"                     oooooo......oooooo                     ",
"                     oooooo......oooooo                     ",
"                     oooooo......oooooo                     ",
"                     oooooo......oooooo                     ",
"                     oooooo......oooooo                     ",
"                     oooooo......oooooo                     ",
"                     oooooo......oooooo                     ",
"                     oooooo......oooooo                     ",
"                     oooooo......oooooo                     ",
"                     oooooo......oooooo                     ",
"                     oooooo......oooooo                     ",
"                     oooooo......oooooo                     ",
"                     oooooo......oooooo                     ",
"                     oooooo......oooooo                     ",
"                     oooooo......oooooo                     ",
"                     oooooo......oooooo                     ",
"                     oooooo......oooooo                     ",
"                     oooooo......oooooo                     ",
"                     oooooo......oooooo                     ",
"                     oooooo......oooooo                     ",
"                     oooooo......oooooo                     ",
"                     oooooo......oooooo                     ",
"                     oooooo......oooooo                     ",
"                     oooooo......oooooo                     ",
"                     oooooo......oooooo                     ",
"                     oooooo......oooooo                     ",
"                     oooooo......oooooo                     ",
"                     oooooo......oooooo                     ",
"                     oooooo......oooooo                     ",
"                     oooooo......oooooo                     ",
"                     oooooo......oooooo                     ",
"                     oooooo......oooooo                     ",
"                     oooooo......oooooo                     ",
"                     oooooo......oooooo                     ",
"                     oooooo......oooooo                     ",
"         oooooooooooooooooo......oooooooooooooooooo         ",
"         oooooooooooooooooo......oooooooooooooooooo         ",
"         oooooooooooooooooo......oooooooooooooooooo         ",
"         oooooooooooooooooo......oooooooooooooooooo         ",
"         oooooooooooooooooo......oooooooooooooooooo         ",
"         oooooooooooooooooo......oooooooooooooooooo         ",
"         oooooo..............................oooooo         ",
"         oooooo..............................oooooo         ",
"         oooooo..............................oooooo         ",
"         oooooo..............................oooooo         ",
"         oooooo..............................oooooo         ",
"         oooooo..............................oooooo         ",
"         oooooooooooooooooooooooooooooooooooooooooo         ",
"         oooooooooooooooooooooooooooooooooooooooooo         ",
"         oooooooooooooooooooooooooooooooooooooooooo         ",
"         oooooooooooooooooooooooooooooooooooooooooo         ",
"         oooooooooooooooooooooooooooooooooooooooooo         ",
"         oooooooooooooooooooooooooooooooooooooooooo         ",
"                                                            ",
"                                                            ",
"                                                            ",
"                                                            ",
"                                                            ",
"                                                            ",
};