/* XPM */
static char *other_0[] = {
/* columns rows colors chars-per-pixel */
"60 112 3 1 ",
"  c None",
". c #000000",
"o c #FFFFFF",
/* pixels */
"                                                            ",
"                                                            ",
"                                                            ",
"                                                            ",
"                                                            ",
"                                                            ",
"      oooooooooooooooooooooooooooooooooooooooooooooooo      ",
"      oooooooooooooooooooooooooooooooooooooooooooooooo      ",
"      oooooooooooooooooooooooooooooooooooooooooooooooo      ",
"      oooooooooooooooooooooooooooooooooooooooooooooooo      ",
"      oooooooooooooooooooooooooooooooooooooooooooooooo      ",
"      oooooooooooooooooooooooooooooooooooooooooooooooo      ",
"      oooooo....................................oooooo      ",
"      oooooo....................................oooooo      ",
"      oooooo....................................oooooo      ",
"      oooooo....................................oooooo      ",
"      oooooo....................................oooooo      ",
"      oooooo....................................oooooo      ",
"      oooooooooooooooooooooooooooooooooooo......oooooo      ",
"      oooooooooooooooooooooooooooooooooooo......oooooo      ",
"      oooooooooooooooooooooooooooooooooooo......oooooo      ",
"      oooooooooooooooooooooooooooooooooooo......oooooo      ",
"      oooooooooooooooooooooooooooooooooooo......oooooo      ",
"      oooooooooooooooooooooooooooooooooooo......oooooo      ",
"                                    oooooo......oooooo      ",
"                                    oooooo......oooooo      ",
"                                    oooooo......oooooo      ",
"                                    oooooo......oooooo      ",
"                                    oooooo......oooooo      ",
"                                    oooooo......oooooo      ",
"                                    oooooo......oooooo      ",
"                                    oooooo......oooooo      ",
"                                    oooooo......oooooo      ",
"                                    oooooo......oooooo      ",
"                                    oooooo......oooooo      ",
"                                    oooooo......oooooo      ",
"                                    oooooo......oooooo      ",
"                                    oooooo......oooooo      ",
"                                    oooooo......oooooo      ",
"                                    oooooo......oooooo      ",
"                                    oooooo......oooooo      ",
"                                    oooooo......oooooo      ",
"                                    oooooo......oooooo      ",
"                                    oooooo......oooooo      ",
"                                    oooooo......oooooo      ",
"                                    oooooo......oooooo      ",
"      oooooooooooooooooooooooooooooooooooo......oooooo      ",
"      oooooooooooooooooooooooooooooooooooo......oooooo      ",
"      oooooooooooooooooooooooooooooooooooo......oooooo      ",
"      oooooooooooooooooooooooooooooooooooo......oooooo      ",
"      oooooooooooooooooooooooooooooooooooo......oooooo      ",
"      oooooooooooooooooooooooooooooooooooo......oooooo      ",
"      oooooo....................................oooooo      ",
"      oooooo....................................oooooo      ",
"      oooooo....................................oooooo      ",
"      oooooo....................................oooooo      ",
"      oooooo....................................oooooo      ",
"      oooooo....................................oooooo      ",
"      oooooo......oooooooooooooooooooooooooooooooooooo      ",
"      oooooo......oooooooooooooooooooooooooooooooooooo      ",
"      oooooo......oooooooooooooooooooooooooooooooooooo      ",
"      oooooo......oooooooooooooooooooooooooooooooooooo      ",
"      oooooo......oooooooooooooooooooooooooooooooooooo      ",
"      oooooo......oooooooooooooooooooooooooooooooooooo      ",
"      oooooo......oooooo                                    ",
"      oooooo......oooooo                                    ",
"      oooooo......oooooo                                    ",
"      oooooo......oooooo                                    ",
"      oooooo......oooooo                                    ",
"      oooooo......oooooo                                    ",
"      oooooo......oooooo                                    ",
"      oooooo......oooooo                                    ",
"      oooooo......oooooo                                    ",
"      oooooo......oooooo                                    ",
"      oooooo......oooooo                                    ",
"      oooooo......oooooo                                    ",
"      oooooo......oooooo                                    ",
"      oooooo......oooooo                                    ",
"      oooooo......oooooo                                    ",
"      oooooo......oooooo                                    ",
"      oooooo......oooooo                                    ",
"      oooooo......oooooo                                    ",
"      oooooo......oooooo                                    ",
"      oooooo......oooooo                                    ",
"      oooooo......oooooo                                    ",
"      oooooo......oooooo                                    ",
"      oooooo......oooooo                                    ",
"      oooooo......oooooo                                    ",
"      oooooo......oooooooooooooooooooooooooooooooooooo      ",
"      oooooo......oooooooooooooooooooooooooooooooooooo      ",
"      oooooo......oooooooooooooooooooooooooooooooooooo      ",
"      oooooo......oooooooooooooooooooooooooooooooooooo      ",
"      oooooo......oooooooooooooooooooooooooooooooooooo      ",
"      oooooo......oooooooooooooooooooooooooooooooooooo      ",
"      oooooo....................................oooooo      ",
"      oooooo....................................oooooo      ",
"      oooooo....................................oooooo      ",
"      oooooo....................................oooooo      ",
"      oooooo....................................oooooo      ",
"      oooooo....................................oooooo      ",
"      oooooooooooooooooooooooooooooooooooooooooooooooo      ",
"      oooooooooooooooooooooooooooooooooooooooooooooooo      ",
"      oooooooooooooooooooooooooooooooooooooooooooooooo      ",
"      oooooooooooooooooooooooooooooooooooooooooooooooo      ",
"      oooooooooooooooooooooooooooooooooooooooooooooooo      ",
"      oooooooooooooooooooooooooooooooooooooooooooooooo      ",
"                                                            ",
"                                                            ",
"                                                            ",
"                                                            ",
"                                                            ",
"                                                            ",
};