/* XPM */
static char *other_0[] = {
/* columns rows colors chars-per-pixel */
"60 112 3 1 ",
"  c None",
". c #000000",
"o c #FFFFFF",
/* pixels */
"                                                            ",
"                                                            ",
"                                                            ",
"                                                            ",
"                                                            ",
"                                                            ",
"      oooooooooooooooooo            oooooooooooooooooo      ",
"      oooooooooooooooooo            oooooooooooooooooo      ",
"      oooooooooooooooooo            oooooooooooooooooo      ",
"      oooooooooooooooooo            oooooooooooooooooo      ",
"      oooooooooooooooooo            oooooooooooooooooo      ",
"      oooooooooooooooooo            oooooooooooooooooo      ",
"      oooooooooooooooooo            oooooo......oooooo      ",
"      oooooo......oooooo            oooooo......oooooo      ",
"      oooooo......oooooo            oooooo......oooooo      ",
"      oooooo......oooooo            oooooo......oooooo      ",
"      oooooo......oooooo            oooooo......oooooo      ",
"      oooooo......oooooo            oooooo......oooooo      ",
"      oooooo......oooooo            oooooo......oooooo      ",
"      oooooo......oooooo            oooooo......oooooo      ",
"      oooooo......oooooo            oooooo......oooooo      ",
"      oooooo......oooooo            oooooo......oooooo      ",
"      oooooo......oooooo            oooooo......oooooo      ",
"      oooooo......oooooo            oooooo......oooooo      ",
"      oooooo......oooooo            oooooo......oooooo      ",
"      oooooo......oooooo            oooooo......oooooo      ",
"      oooooo......oooooo            oooooo......oooooo      ",
"      oooooo......oooooo            oooooo......oooooo      ",
"      oooooo......oooooo            oooooo......oooooo      ",
"      oooooo......oooooo            oooooo......oooooo      ",
"      oooooo......oooooo            oooooo......oooooo      ",
"      oooooo......oooooo            oooooo......oooooo      ",
"      oooooo......oooooo            oooooo......oooooo      ",
"      oooooo......oooooo            oooooo......oooooo      ",
"      oooooo......oooooo            oooooo......oooooo      ",
"      oooooo......oooooo            oooooo......oooooo      ",
"      oooooo......oooooo            oooooo......oooooo      ",
"      oooooo......oooooo            oooooo......oooooo      ",
"      oooooo......oooooo            oooooo......oooooo      ",
"      oooooo......oooooo            oooooo......oooooo      ",
"      oooooo......oooooo            oooooo......oooooo      ",
"      oooooo......oooooo            oooooo......oooooo      ",
"      oooooo......oooooo            oooooo......oooooo      ",
"      oooooo......oooooo            oooooo......oooooo      ",
"      oooooo......oooooo            oooooo......oooooo      ",
"      oooooo......oooooo            oooooo......oooooo      ",
"      oooooo......oooooooooooooooooooooooo......oooooo      ",
"      oooooo......oooooooooooooooooooooooo......oooooo      ",
"      oooooo......oooooooooooooooooooooooo......oooooo      ",
"      oooooo......oooooooooooooooooooooooo......oooooo      ",
"      oooooo......oooooooooooooooooooooooo......oooooo      ",
"      oooooo......oooooooooooooooooooooooo......oooooo      ",
"      oooooo....................................oooooo      ",
"      oooooo....................................oooooo      ",
"      oooooo....................................oooooo      ",
"      oooooo....................................oooooo      ",
"      oooooo....................................oooooo      ",
"      oooooo....................................oooooo      ",
"      oooooooooooooooooooooooooooooooooooo......oooooo      ",
"      oooooooooooooooooooooooooooooooooooo......oooooo      ",
"      oooooooooooooooooooooooooooooooooooo......oooooo      ",
"      oooooooooooooooooooooooooooooooooooo......oooooo      ",
"      oooooooooooooooooooooooooooooooooooo......oooooo      ",
"      oooooooooooooooooooooooooooooooooooo......oooooo      ",
"                                    oooooo......oooooo      ",
"                                    oooooo......oooooo      ",
"                                    oooooo......oooooo      ",
"                                    oooooo......oooooo      ",
"                                    oooooo......oooooo      ",
"                                    oooooo......oooooo      ",
"                                    oooooo......oooooo      ",
"                                    oooooo......oooooo      ",
"                                    oooooo......oooooo      ",
"                                    oooooo......oooooo      ",
"                                    oooooo......oooooo      ",
"                                    oooooo......oooooo      ",
"                                    oooooo......oooooo      ",
"                                    oooooo......oooooo      ",
"                                    oooooo......oooooo      ",
"                                    oooooo......oooooo      ",
"                                    oooooo......oooooo      ",
"                                    oooooo......oooooo      ",
"                                    oooooo......oooooo      ",
"                                    oooooo......oooooo      ",
"                                    oooooo......oooooo      ",
"                                    oooooo......oooooo      ",
"                                    oooooo......oooooo      ",
"                                    oooooo......oooooo      ",
"                                    oooooo......oooooo      ",
"                                    oooooo......oooooo      ",
"                                    oooooo......oooooo      ",
"                                    oooooo......oooooo      ",
"                                    oooooo......oooooo      ",
"                                    oooooo......oooooo      ",
"                                    oooooo......oooooo      ",
"                                    oooooo......oooooo      ",
"                                    oooooo......oooooo      ",
"                                    oooooo......oooooo      ",
"                                    oooooo......oooooo      ",
"                                    oooooo......oooooo      ",
"                                    oooooooooooooooooo      ",
"                                    oooooooooooooooooo      ",
"                                    oooooooooooooooooo      ",
"                                    oooooooooooooooooo      ",
"                                    oooooooooooooooooo      ",
"                                    oooooooooooooooooo      ",
"                                                            ",
"                                                            ",
"                                                            ",
"                                                            ",
"                                                            ",
"                                                            ",
};